<?xml version="1.0" encoding="iso-8859-1"?>
<!-- Generator: Adobe Illustrator 19.0.0, SVG Export Plug-In . SVG Version: 6.00 Build 0)  -->
<svg version="1.1" id="Capa_1" xmlns="http://www.w3.org/2000/svg" xmlns:xlink="http://www.w3.org/1999/xlink" x="0px" y="0px"
	 viewBox="0 0 512 512" style="enable-background:new 0 0 512 512;" xml:space="preserve">
<path style="fill:#3B4145;" d="M256,7.5v497c137.243,0,248.5-111.257,248.5-248.5S393.243,7.5,256,7.5z"/>
<path style="fill:#525A61;" d="M464.5,256C464.5,118.757,371.151,7.5,256,7.5C118.757,7.5,7.5,118.757,7.5,256
	S118.757,504.5,256,504.5C371.151,504.5,464.5,393.243,464.5,256z"/>
<path d="M437.02,74.981C388.667,26.629,324.38,0,256,0C193.371,0,133.084,22.87,86.246,64.396c-3.1,2.748-3.384,7.488-0.637,10.588
	c2.748,3.099,7.488,3.384,10.588,0.636C140.289,36.529,197.041,15,256,15c132.888,0,241,108.112,241,241S388.888,497,256,497
	S15,388.888,15,256c0-58.959,21.529-115.711,60.621-159.803c2.748-3.099,2.463-7.84-0.637-10.587
	c-3.1-2.749-7.84-2.462-10.588,0.636C22.87,133.084,0,193.371,0,256c0,68.38,26.629,132.667,74.98,181.019
	C123.333,485.371,187.62,512,256,512s132.667-26.629,181.02-74.981C485.371,388.667,512,324.38,512,256
	S485.371,123.333,437.02,74.981z"/>
<g>
</g>
<g>
</g>
<g>
</g>
<g>
</g>
<g>
</g>
<g>
</g>
<g>
</g>
<g>
</g>
<g>
</g>
<g>
</g>
<g>
</g>
<g>
</g>
<g>
</g>
<g>
</g>
<g>
</g>
</svg>
