<?xml version="1.0" encoding="iso-8859-1"?>
<!-- Generator: Adobe Illustrator 19.0.0, SVG Export Plug-In . SVG Version: 6.00 Build 0)  -->
<svg version="1.1" id="Layer_1" xmlns="http://www.w3.org/2000/svg" xmlns:xlink="http://www.w3.org/1999/xlink" x="0px" y="0px"
	 viewBox="0 0 512.001 512.001" style="enable-background:new 0 0 512.001 512.001;" xml:space="preserve">
<path style="fill:#898890;" d="M271.155,503.124l170.039-303.241l-30.309-16.996L299.32,381.849l37.36-165.191l-33.892-7.666
	l-46.794,206.9l-46.828-206.903l-33.891,7.671l37.374,165.131L101.116,182.888l-30.309,16.996l170.039,303.241
	c3.102,5.534,9,8.877,15.155,8.877h0.001l0,0c0.001,0,0.002,0,0.004,0C262.234,511.998,268.086,508.6,271.155,503.124z"/>
<path style="fill:#57565C;" d="M410.885,182.888L299.32,381.849l37.36-165.191l-33.892-7.666l-46.788,206.873V512h0.001l0,0
	c0.001,0,0.002,0,0.004,0c6.229-0.002,12.08-3.4,15.149-8.876l170.039-303.241L410.885,182.888z"/>
<path style="fill:#CD2A00;" d="M445.754,184.697c-6.949-45.359-29.895-91.202-62.957-125.772C346.455,20.927,301.425,0,256.001,0
	s-90.454,20.927-126.796,58.926c-33.062,34.57-56.009,80.412-62.957,125.772c-1.106,7.219,2.422,14.359,8.826,17.868
	c6.406,3.509,14.323,2.637,19.81-2.179c9.303-8.167,21.237-12.663,33.604-12.663c21.199,0,39.859,12.777,47.538,32.55
	c2.595,6.682,9.074,11.084,16.242,11.084c7.168,0,13.601-4.402,16.196-11.084c7.68-19.774,26.339-32.55,47.538-32.55
	s39.859,12.777,47.538,32.55c2.595,6.682,9.027,11.084,16.196,11.084h0.047c7.168,0,13.601-4.402,16.196-11.084
	c7.68-19.774,26.339-32.55,47.538-32.55c12.367,0,24.301,4.497,33.604,12.663c5.488,4.818,13.404,5.688,19.81,2.179
	C443.333,199.056,446.86,191.917,445.754,184.697z"/>
<path style="fill:#AA2300;" d="M445.754,184.697c-6.949-45.359-29.895-91.202-62.957-125.772C346.455,20.927,301.425,0,256.001,0
	v187.723c21.199,0,39.859,12.777,47.538,32.55c2.595,6.682,9.027,11.084,16.196,11.084h0.047c7.168,0,13.601-4.402,16.196-11.084
	c7.68-19.774,26.339-32.55,47.538-32.55c12.367,0,24.301,4.497,33.604,12.663c5.488,4.818,13.404,5.688,19.81,2.179
	C443.333,199.056,446.86,191.917,445.754,184.697z"/>
<path style="fill:#E0E0E2;" d="M260.205,1.915c0,0-2.576-1.915-4.204-1.915c-1.63,0-4.483,1.867-4.483,1.867
	c-101.011,64.603-75.494,218.406-75.494,218.406c2.595,6.682,9.074,11.084,16.242,11.084c7.168,0,13.601-4.402,16.196-11.084
	c7.673-19.757,26.31-32.528,47.486-32.549c21.178,0.021,39.813,12.792,47.486,32.549c2.595,6.682,9.027,11.084,16.196,11.084
	s13.647-4.402,16.242-11.084C335.873,220.273,361.217,66.517,260.205,1.915z"/>
<path style="fill:#D8D7DA;" d="M260.205,1.915c0,0-2.576-1.915-4.204-1.915v187.725c21.157,0.041,39.769,12.807,47.435,32.548
	c2.595,6.682,9.027,11.084,16.196,11.084s13.647-4.402,16.242-11.084C335.873,220.273,361.217,66.517,260.205,1.915z"/>
<g>
</g>
<g>
</g>
<g>
</g>
<g>
</g>
<g>
</g>
<g>
</g>
<g>
</g>
<g>
</g>
<g>
</g>
<g>
</g>
<g>
</g>
<g>
</g>
<g>
</g>
<g>
</g>
<g>
</g>
</svg>
